<svg id="图层_1" data-name="图层 1" xmlns="http://www.w3.org/2000/svg" viewBox="0 0 616 708.66" fill="#bfbfbf"><title>密码</title><path d="M517.34,283.55H505.72V202.24a197.47,197.47,0,1,0-394.95,0v81.31H99.15a69.9,69.9,0,0,0-69.7,69.7V632a69.9,69.9,0,0,0,69.7,69.7H517.34A69.9,69.9,0,0,0,587,632V353.25A69.9,69.9,0,0,0,517.34,283.55Zm-360.1-81.31a151,151,0,1,1,302,0v81.31h-302V202.24ZM540.57,632a23.3,23.3,0,0,1-23.23,23.23H99.15A23.3,23.3,0,0,1,75.92,632V353.25A23.3,23.3,0,0,1,99.15,330H517.34a23.3,23.3,0,0,1,23.23,23.23V632Z"/></svg>
