<svg id="图层_1" data-name="图层 1" xmlns="http://www.w3.org/2000/svg" viewBox="0 0 2208 1500"><defs><style>.cls-1{fill:#0f8bff;}.cls-2{fill:#0acfea;}.cls-3{fill:#0fd6ff;}.cls-4{fill:#d1d1d1;}</style></defs><title>mini host-logo</title><path class="cls-1" d="M1317.93,524.12l97.52,257.59,101.23-257.59h41.15v293.8h-28V564H1529l-100.4,253.89h-26.34L1305.59,564h-0.82V817.93h-28V524.12h41.15Z"/><path class="cls-1" d="M1669.75,524.12v41.56h-25.92V524.12h25.92Zm0,81.48V817.93h-25.92V605.6h25.92Z"/><path class="cls-1" d="M1778,605.6v36.62h0.82q7.41-19.34,26.34-31.07a77.36,77.36,0,0,1,41.56-11.73q22.22,0,37.24,5.76T1908,621.44a60.64,60.64,0,0,1,12.76,25.72,144.85,144.85,0,0,1,3.7,34.15V817.93h-25.92V685.42a122.78,122.78,0,0,0-2.47-25.3,53.56,53.56,0,0,0-8.64-20.37,41.9,41.9,0,0,0-16.66-13.58q-10.49-4.94-26.13-4.93t-27.77,5.55A60.1,60.1,0,0,0,1796.28,642a70.24,70.24,0,0,0-13.17,23,93.81,93.81,0,0,0-5.14,29V817.93h-25.92V605.6H1778Z"/><path class="cls-1" d="M2032.68,524.12v41.56h-25.92V524.12h25.92Zm0,81.48V817.93h-25.92V605.6h25.92Z"/><path class="cls-2" d="M943.88,1008.52h59.32v134.77h154.23V1008.52h59.32v338.82h-59.32v-152.8H1003.19v152.8H943.88V1008.52Z"/><path class="cls-2" d="M1430.75,1354q-29.43,0-52.44-9.72a111.71,111.71,0,0,1-38.91-26.81,114.53,114.53,0,0,1-24.2-40.81q-8.31-23.72-8.31-52.2,0-28,8.31-51.73a114.53,114.53,0,0,1,24.2-40.81,111.8,111.8,0,0,1,38.91-26.81q23-9.71,52.44-9.72t52.44,9.72a112,112,0,0,1,38.91,26.81,114.79,114.79,0,0,1,24.2,40.81,155.79,155.79,0,0,1,8.3,51.73q0,28.47-8.3,52.2a114.79,114.79,0,0,1-24.2,40.81,111.87,111.87,0,0,1-38.91,26.81Q1460.16,1354,1430.75,1354Zm0-42.7q18,0,31.32-7.6a66,66,0,0,0,21.83-19.93,87.05,87.05,0,0,0,12.58-27.76,124.64,124.64,0,0,0,0-62.88,84,84,0,0,0-12.58-27.76,67.07,67.07,0,0,0-21.83-19.69q-13.29-7.58-31.32-7.6t-31.32,7.6a67,67,0,0,0-21.83,19.69,83.89,83.89,0,0,0-12.57,27.76,124.54,124.54,0,0,0,0,62.88,86.89,86.89,0,0,0,12.57,27.76,65.93,65.93,0,0,0,21.83,19.93Q1412.71,1311.28,1430.75,1311.28Z"/><path class="cls-2" d="M1678.45,1268.57q2.37,23.73,18,33.21t37.49,9.5a144.72,144.72,0,0,0,17.32-1.19,75.22,75.22,0,0,0,18.27-4.51,34.27,34.27,0,0,0,14-9.73q5.45-6.4,5-16.84a23.92,23.92,0,0,0-7.59-17.09,52.71,52.71,0,0,0-18.27-10.67,177.76,177.76,0,0,0-25.39-6.88q-14.23-2.85-28.95-6.17a267.75,267.75,0,0,1-29.18-8.07,93.67,93.67,0,0,1-25.15-12.81,59.12,59.12,0,0,1-17.8-20.64q-6.65-12.57-6.64-31.09,0-19.93,9.73-33.45a74.57,74.57,0,0,1,24.68-21.83,107.66,107.66,0,0,1,33.22-11.62,195.13,195.13,0,0,1,34.88-3.32,159.92,159.92,0,0,1,36.3,4,98.89,98.89,0,0,1,31.32,13,76.85,76.85,0,0,1,23.25,23.49q9.25,14.48,11.62,34.88h-56.47q-3.8-19.45-17.8-26.1t-32-6.65a115.58,115.58,0,0,0-13.53.95,63.26,63.26,0,0,0-14.71,3.56,31,31,0,0,0-11.62,7.59q-4.75,5-4.74,13.05,0,10,6.88,16.14t18,10.2a175.68,175.68,0,0,0,25.39,6.88q14.23,2.85,29.42,6.17,14.7,3.33,28.95,8.07a93.63,93.63,0,0,1,25.39,12.82,62.42,62.42,0,0,1,18,20.41q6.87,12.34,6.88,30.37,0,21.84-10,37a78.81,78.81,0,0,1-25.86,24.68,117.77,117.77,0,0,1-35.35,13.76A178.86,178.86,0,0,1,1733,1354a167.37,167.37,0,0,1-42.95-5.22,100,100,0,0,1-34.17-15.89,76.65,76.65,0,0,1-22.78-26.57q-8.31-15.89-8.78-37.73h54.1Z"/><path class="cls-2" d="M1897.21,1102H1938v-73.56h54.1V1102H2041v40.34h-48.88v131a130.57,130.57,0,0,0,.71,14.72,25.36,25.36,0,0,0,3.32,10.44,15.81,15.81,0,0,0,7.83,6.4q5.22,2.14,14.24,2.13c3.79,0,7.59-.07,11.39-0.24a56.94,56.94,0,0,0,11.39-1.66v41.75q-9,1-17.56,1.9a160.07,160.07,0,0,1-17.56.95q-21.36,0-34.41-4t-20.4-11.86a40.89,40.89,0,0,1-10-19.7,147.4,147.4,0,0,1-3.08-27V1142.34h-40.81V1102Z"/><path class="cls-1" d="M441.76,26h0.17C294.08,26,169,150.31,169,298.16V817.93c190.54,20.89,387,11,541,.68V298.16C710,150.31,589.61,26,441.76,26Z"/><path class="cls-3" d="M600,824.86V220.06c0-38.44-25.09-77.06-63.53-77.06h-0.33C497.69,143,462,181.62,462,220.06V829.8C509,829,560,827.18,600,824.86Z"/><rect class="cls-1" x="708.47" y="551.54" width="133.84" height="133.84" transform="translate(1393.85 -156.93) rotate(90)"/><rect class="cls-3" x="708.47" y="685.38" width="133.84" height="133.84" transform="translate(1527.69 -23.09) rotate(90)"/><rect class="cls-1" x="842.31" y="417.69" width="133.84" height="133.84" transform="translate(1393.85 -424.62) rotate(90)"/><rect class="cls-3" x="842.31" y="551.54" width="133.84" height="133.84" transform="translate(1527.69 -290.78) rotate(90)"/><rect class="cls-3" x="1110" y="150.01" width="133.84" height="133.84" transform="translate(1393.85 -959.98) rotate(90)"/><rect class="cls-1" x="1243.84" y="150.01" width="133.84" height="133.84" transform="translate(1527.69 -1093.83) rotate(90)"/><rect class="cls-1" x="1110" y="283.85" width="133.84" height="133.84" transform="translate(1527.69 -826.14) rotate(90)"/><rect class="cls-3" x="976.15" y="417.69" width="133.84" height="133.84" transform="translate(1527.69 -558.46) rotate(90)"/><rect class="cls-1" x="976.15" y="685.38" width="133.84" height="133.84" transform="translate(1795.37 -290.78) rotate(90)"/><path class="cls-4" d="M169,817.92v390.44C169,1356.21,293.91,1470,441.76,1470h0.17C589.78,1470,710,1356.21,710,1208.36V818.61C556,828.91,359.54,838.82,169,817.92Zm461,75.57v25c-112,7.9-252,15.23-384-.39V893C381,909.28,524,901.54,630,893.49ZM306.67,1345.57a197.16,197.16,0,0,1-23.23-27.17c107.9,9.28,218,5,312.3-1.09a189.6,189.6,0,0,1-21,26.69C492.22,1348.94,399.13,1351.89,306.67,1345.57ZM249,1234.32a216.61,216.61,0,0,1-2.83-26.23c132.58,15.57,271.77,8.26,383.37.38a235.75,235.75,0,0,1-2.61,26.1C516.52,1242.33,379.67,1249.34,249,1234.32Zm-3-106.89v-24c132,15.62,272,8.29,384,.39v24C518,1135.71,378,1143,246,1127.43Zm0-104.68v-24c132,15.62,272,8.29,384,.39v24C518,1031,378,1038.37,246,1022.75Z"/></svg>