<svg id="图层_1" data-name="图层 1" xmlns="http://www.w3.org/2000/svg" viewBox="0 0 2216.98 624.39"><defs><style>.cls-1{fill:#24b5bf;}.cls-2{fill:#fff;}.cls-3{fill:#203243;}</style></defs><title>squid+octopus图</title><path class="cls-1" d="M562,443.3c-8.83-52.87-46-52.29-106.88-74.7-28-10.32-20.69-49.42-20.69-49.42L291.54,361.24,148.62,319.18s7.36,39.1-20.69,49.42C67,391,29.88,390.44,21,443.3c-3.93,21.62-1.19,33.36,0,39.07s3.81,24.13,20.36,24.35,20.44-16.84,19.86-22.05-5.75-52.29,42.52-63.21c38-8.58,54.88-16.09,63.21-30.45,11.64-11.92,43.67,15.51,16.09,44.25S143.73,478.07,139.42,487c-8.12,16.77-11.49,27-11.49,70.1s29,25.28,35.05,19,6-11.78,7.18-21.26,0.57-21.26,3.74-37.93c2.08-11,12.81-23.54,24.28-37.54,14.62-17.85,22.84-33.71,29.74-42.91s41.37-32.18,41.37,5.75-8,79.3-4.6,133.31c1.3,20.44,8.87,33.27,17.82,38.39a18.24,18.24,0,0,0,3.14,1.36c0.4,0.15.79,0.39,1.2,0.51a16.74,16.74,0,0,0,3.06.46c0.55,0.06,1.09.21,1.64,0.21s1.09-.15,1.64-0.21a16.74,16.74,0,0,0,3.06-.46c0.41-.12.8-0.36,1.2-0.51a18.24,18.24,0,0,0,3.14-1.36c9-5.11,16.51-18,17.82-38.39,3.45-54-4.6-95.39-4.6-133.31s34.48-14.94,41.37-5.75,15.12,25.05,29.74,42.91c11.46,14,22.2,26.58,24.28,37.54,3.16,16.66,3.76,28.44,4.91,37.93s0,14.94,6,21.26,35.05,24.13,35.05-19-3.38-53.33-11.49-70.1c-4.31-8.91-16.09-23-43.67-51.72s4.45-56.17,16.09-44.25c8.33,14.37,25.25,21.87,63.21,30.45,48.27,10.92,43.1,58,42.52,63.21s3.3,22.27,19.86,22.05,19.18-18.64,20.36-24.35S566,464.92,562,443.3Z"/><ellipse class="cls-1" cx="292.73" cy="223.8" rx="183.77" ry="167.22"/><circle class="cls-2" cx="292.73" cy="235.32" r="99.15"/><circle class="cls-3" cx="292.73" cy="235.32" r="51.12"/><path class="cls-1" d="M760.2,278.38q0,13.68-6.74,29.61t-21.21,31.27q-14.47,15.35-36.94,24.92t-52.38,9.58a183.1,183.1,0,0,1-41.24-4.3A115.75,115.75,0,0,1,568,356.07a113.69,113.69,0,0,1-27.85-23.94,142.24,142.24,0,0,1-19.35-30.2,157.25,157.25,0,0,1-12-35.67,194.3,194.3,0,0,1-4-40.26q0-34.59,10.07-62t28.83-46.81a125.77,125.77,0,0,1,44-29.61,142.44,142.44,0,0,1,53.75-10.16q34.79,0,62,13.88T745,125.63q14.46,20.43,14.46,38.6a25.16,25.16,0,0,1-7,17.59,22.31,22.31,0,0,1-17,7.62q-11.14,0-16.71-5.28T706.26,166q-11.34-21.3-26.68-31.86t-37.82-10.55q-35.77,0-57,27.17T563.58,228q0,33.42,9.38,55.61t26.58,33.13q17.2,10.95,40.26,10.95,25,0,42.32-12.41t26.09-36.45a61.82,61.82,0,0,1,9.19-18.47q5.47-7.13,17.59-7.13a24.61,24.61,0,0,1,17.79,7.23A24.09,24.09,0,0,1,760.2,278.38Z"/><path class="cls-1" d="M1002.46,130.22H939.14V338.38q0,18-8,26.68t-20.72,8.7q-12.9,0-21-8.8t-8.11-26.58V130.22H818q-14.86,0-22.09-6.55t-7.23-17.3q0-11.14,7.52-17.59T818,82.34h184.51q15,0,22.38,6.65t7.33,17.4q0,10.75-7.43,17.3T1002.46,130.22Z"/><path class="cls-1" d="M1191.36,77.45q44.56,0,76.52,18.08a117.2,117.2,0,0,1,48.38,51.4q16.42,33.33,16.42,78.28,0,33.23-9,60.39a130.68,130.68,0,0,1-27,47.1,117.87,117.87,0,0,1-44.17,30.49q-26.19,10.55-60,10.55-33.62,0-60.2-10.85T1088,332.32q-17.79-19.74-26.87-47.5t-9.09-60q0-33,9.48-60.59t27.46-46.91a118.76,118.76,0,0,1,43.78-29.61Q1158.53,77.45,1191.36,77.45Zm82.48,147.37q0-31.47-10.16-54.53t-29-34.89q-18.86-11.82-43.29-11.83a78.38,78.38,0,0,0-32.15,6.55,70.68,70.68,0,0,0-25.41,19.06q-10.66,12.51-16.81,32t-6.16,43.68q0,24.43,6.16,44.17t17.39,32.74a73,73,0,0,0,25.8,19.45,81.49,81.49,0,0,0,72.9-4.69q18.66-11.14,29.71-34.4T1273.84,224.82Z"/><path class="cls-1" d="M1497.53,257.27h-53.16v81.11q0,17.4-8.21,26.39a26.86,26.86,0,0,1-20.72,9q-13.1,0-21.11-8.89t-8-26.09V117.91q0-19.15,8.79-27.36t28-8.21h74.47q33,0,50.82,5.08a75.71,75.71,0,0,1,30.39,16.22,73.2,73.2,0,0,1,19.45,27.75q6.64,16.42,6.65,36.94,0,43.78-27,66.36T1497.53,257.27Zm-14.07-131.34h-39.09v87.56h39.09q20.52,0,34.3-4.3t21-14.07q7.23-9.77,7.23-25.6,0-19-11.14-30.88Q1522.35,125.93,1483.46,125.92Z"/><path class="cls-1" d="M1657.7,250.43V112.63q0-17.59,7.92-26.39t20.82-8.79q13.49,0,21.4,8.79t7.92,26.39V253.55q0,24,5.38,40.17a46.35,46.35,0,0,0,19.06,25q13.68,8.9,38.31,8.89,34,0,48.08-18.08t14.07-54.83V112.63q0-17.78,7.82-26.48t20.91-8.7q13.09,0,21.21,8.7t8.11,26.48V250.43q0,33.62-6.55,56.09T1867.42,346a96,96,0,0,1-36.35,21.11q-20.72,6.64-48.47,6.65-33,0-56.88-7.13t-38.9-22.09q-15.05-15-22.09-38.31T1657.7,250.43Z"/><path class="cls-1" d="M2183.17,282.87q0,26-13.39,46.71T2130.6,362q-25.8,11.73-61.18,11.73-42.41,0-70-16a93.17,93.17,0,0,1-31.76-30.78q-12.22-19.25-12.22-37.43a25,25,0,0,1,7.33-18.08q7.33-7.52,18.67-7.53a22.07,22.07,0,0,1,15.54,5.86q6.35,5.86,10.85,17.4A116,116,0,0,0,2019.68,310a47.87,47.87,0,0,0,17.88,15.15q11.53,6,30.29,6,25.8,0,41.92-12t16.12-30q0-14.27-8.7-23.16t-22.48-13.58q-13.78-4.69-36.84-10-30.88-7.23-51.7-16.91t-33-26.39q-12.22-16.71-12.22-41.53,0-23.65,12.9-42t37.33-28.24q24.43-9.87,57.46-9.87,26.39,0,45.64,6.55t32,17.39q12.7,10.85,18.57,22.77a52.52,52.52,0,0,1,5.86,23.26,27.49,27.49,0,0,1-7.33,18.67,23.37,23.37,0,0,1-18.28,8.31q-10,0-15.15-5t-11.24-16.32q-7.82-16.22-18.76-25.31t-35.18-9.09q-22.48,0-36.26,9.87t-13.78,23.75a24.05,24.05,0,0,0,4.69,14.85,39.46,39.46,0,0,0,12.9,10.75,86.64,86.64,0,0,0,16.61,7q8.4,2.54,27.75,7.43a436.27,436.27,0,0,1,43.88,12.51q19.64,6.84,33.42,16.61a68.38,68.38,0,0,1,21.5,24.72Q2183.17,261.18,2183.17,282.87Z"/></svg>