<svg id="图层_1" data-name="图层 1" xmlns="http://www.w3.org/2000/svg" viewBox="0 0 2725.2 1487.46"><defs><style>.cls-1{fill:#19b19c;}.cls-2{fill:#fff;}.cls-3{fill:#203243;}</style></defs><title>squid+octopus图</title><path class="cls-1" d="M1198.82,716.81q0,35.34-18.2,63.51t-53.28,44.11q-35.08,15.94-83.17,15.94-57.67,0-95.13-21.79a126.67,126.67,0,0,1-43.18-41.85q-16.61-26.17-16.61-50.89a34,34,0,0,1,10-24.58q10-10.23,25.38-10.23a30,30,0,0,1,21.13,8q8.63,8,14.75,23.65,7.44,18.6,16.08,31.09t24.31,20.59q15.68,8.11,41.19,8.11,35.08,0,57-16.34T1121,725.31q0-19.39-11.83-31.49t-30.56-18.47q-18.73-6.38-50.09-13.55-42-9.83-70.28-23T913.3,602.95q-16.61-22.72-16.61-56.47,0-32.15,17.54-57.13T965,451q33.21-13.42,78.12-13.42,35.87,0,62,8.9t43.45,23.65q17.27,14.75,25.24,31t8,31.62q0,14.09-10,25.38A31.77,31.77,0,0,1,1147,569.33q-13.55,0-20.59-6.78t-15.28-22.19q-10.63-22.05-25.51-34.41t-47.83-12.36q-30.56,0-49.29,13.42t-18.73,32.29a32.7,32.7,0,0,0,6.38,20.2,53.62,53.62,0,0,0,17.54,14.61,117.82,117.82,0,0,0,22.59,9.57q11.42,3.46,37.73,10.1a593.49,593.49,0,0,1,59.65,17q26.71,9.3,45.44,22.59A93,93,0,0,1,1188.32,667Q1198.81,687.31,1198.82,716.81Z"/><path class="cls-1" d="M1584.51,785.37a436.24,436.24,0,0,0,37.73,22.72q20.46,11,27.1,17.54t6.64,18.47q0,8.5-7.84,17a24.9,24.9,0,0,1-19,8.5q-9,0-21.92-5.85a246.87,246.87,0,0,1-30.29-17q-17.41-11.16-38.13-26-38.53,19.66-94.6,19.66-45.44,0-81.44-14.48t-60.45-41.72q-24.45-27.23-36.8-64.7t-12.36-81.58q0-44.9,12.89-82.37t37.33-63.77q24.45-26.31,59.52-40.26t79.72-14q60.59,0,104,24.58T1612.41,532q22.32,45.31,22.32,106.42Q1634.73,731.16,1584.51,785.37Zm-61.91-43a120,120,0,0,0,24.31-44.64q7.83-25.77,7.84-59.79,0-42.78-13.82-74.14t-39.46-47.43q-25.65-16.08-58.86-16.08a106.55,106.55,0,0,0-43.71,8.9,96.08,96.08,0,0,0-34.54,25.91q-14.49,17-22.85,43.45t-8.37,59.39q0,67.23,31.36,103.5t79.19,36.27q19.66,0,40.39-8.24a206.3,206.3,0,0,0-31.22-18.6q-18.73-9.3-25.64-14.35t-6.91-14.35q0-8,6.64-14.08t14.62-6.11Q1465.73,701.93,1522.6,742.32Z"/><path class="cls-1" d="M1708.2,672.7V485.37q0-23.92,10.76-35.87t28.3-12q18.34,0,29.1,12t10.76,35.87V677q0,32.69,7.31,54.61t25.91,34q18.6,12.1,52.08,12.09,46.23,0,65.37-24.58t19.13-74.54V485.37q0-24.18,10.63-36T1996,437.54q17.8,0,28.83,11.82t11,36V672.7q0,45.71-8.9,76.26t-33.61,53.68a130.55,130.55,0,0,1-49.42,28.7q-28.17,9-65.9,9-44.91,0-77.33-9.7t-52.88-30q-20.46-20.33-30-52.08T1708.2,672.7Z"/><path class="cls-1" d="M2129.76,792.28V485.37q0-23.92,10.89-35.87t28.17-12q17.8,0,28.83,11.82t11,36V792.28q0,24.18-11,36.14t-28.83,12q-17,0-28-12.09T2129.76,792.28Z"/><path class="cls-1" d="M2351.24,444.18h102.83q40.12,0,68.82,7.44a126.57,126.57,0,0,1,52.08,27.9q60.85,52.08,60.85,158.37,0,35.08-6.11,64a189.13,189.13,0,0,1-18.87,52.21,162.22,162.22,0,0,1-32.68,41.59,135.19,135.19,0,0,1-34.28,22.59,155.08,155.08,0,0,1-40,12,304.4,304.4,0,0,1-48.23,3.45H2352.83q-21.52,0-32.42-6.51a30.26,30.26,0,0,1-14.22-18.33q-3.33-11.82-3.32-30.69V492.54q0-25.51,11.43-36.94T2351.24,444.18Zm30.56,62.45V771h59.79q19.66,0,30.82-1.06a96.12,96.12,0,0,0,23.12-5.31,62.88,62.88,0,0,0,20.73-12q39.59-33.48,39.59-115.32,0-57.66-17.4-86.36t-42.92-36.54q-25.51-7.84-61.65-7.84H2381.8Z"/><path class="cls-1" d="M743.19,892.27C481,831.13,506.92,614.55,506.92,614.55s59.07-58,80.83-154.4S734.9,243.57,885.16,216.63c-16.89-39.82-20.08-69.78-19.8-87.89h-25.8v56h-56v-56h56V22.84c-7.85,0-56.65-3.45-137.82,0-82.83,3.52-542,62.18-504.66,638.34,0,0-128.5,172-138.86,296.37s-29.3,457.67,319.17,514c68.39,11.05,111.23-80.14,41.45-114-55.06-26.71-59.41,26.94-37.31,40.07-10.67-18.37-2.07-49,30.4-26.25,34.17,24,15.93,81.66-34.54,63.56-154.06-55.27-240.69-153.85-243.52-340.59-1-68.39,86-64.25,115,0-16.58-47.67-37.31-175.13-10.36-253.88,7.25,203.11,53.52,411.7,280.83,473.57,175.13,47.67,216.58-127.46,94.3-94.3,59.07,4.14,65.28,49.74-17.62,63.21S346.3,1175.17,346.3,1050.82c0-92.23,118.13-77.72,154.4-74.61-39.38-20.73-101.55-87-108.81-131.61C422,890.2,509,988.32,690.34,1001.44s187.56,72.18,110.88,96c77.72-1,111.92-92.23,2.07-116.06S598.12,934.76,535.94,878.8c99.48,46.63,154.4,59.07,247.67,68.39S989.82,1013.51,968.06,1142C1010.55,1042.53,1005.37,953.41,743.19,892.27ZM713.14,58.08h56v49.55h-56V58.08Z"/><path class="cls-2" d="M474.5,563.45c-23.71-5.06-30.9-45.42-16.07-90.14s46.08-76.88,69.79-71.82,30.9,45.42,16.07,90.14S498.21,568.51,474.5,563.45Z"/><path class="cls-3" d="M493.68,516.66c-10-2.14-13-19.17-6.78-38.06s19.46-32.46,29.47-30.32,13,19.17,6.78,38.06S503.69,518.8,493.68,516.66Z"/><rect class="cls-1" x="839.57" y="128.74" width="102.94" height="88.23"/><rect class="cls-1" x="907.77" y="43.07" width="96.94" height="108.36"/><rect class="cls-1" x="985.08" y="181.74" width="51.94" height="55.5"/><rect class="cls-1" x="1027.99" y="127.85" width="60.97" height="60.97"/><rect class="cls-1" x="1067.37" y="209.49" width="54.65" height="48.27"/><rect class="cls-1" x="1118.02" y="259.83" width="43.12" height="43.12"/><rect class="cls-1" x="1153.96" y="312.69" width="30.38" height="30.38"/></svg>