<svg id="图层_1" data-name="图层 1" xmlns="http://www.w3.org/2000/svg" viewBox="0 0 624 708.66" fill="#bfbfbf"><title>头像</title><path d="M419.3,354.37c43.86-31.33,72.06-84.59,72.06-144.12C491.36,110,409.9,31.66,312.78,31.66c-100.26,0-178.59,81.46-178.59,178.59,0,59.52,28.2,112.79,72.06,144.12C93.46,398.23,12,507.89,12,636.34a28.2,28.2,0,1,0,56.39,0c0-134.72,109.66-247.51,244.38-247.51S557.16,498.49,557.16,633.21a28.2,28.2,0,0,0,56.39,0c-3.13-128.46-81.46-235-194.25-278.84h0ZM312.78,84.92c68.92,0,125.32,56.4,125.32,125.33S381.7,335.57,312.78,335.57s-125.33-56.4-125.33-125.32S243.85,84.92,312.78,84.92h0Zm0,0"/></svg>
